# xmcd
#
# Track frame offsets:
#	150
#	18340
#	36661
#	56888
#	75279
#	95013
#	111196
#	129354
#	147565
#	164315
#	168328
#	184794
#	202988
#	214068
#	219039
#	237334
#	249011
#	264701
#	280036
#	294746
#	309997
#
# Disc length: 4384 seconds
#
# Revision: 1
# Processed by: cddbd v1.5.2PL0 Copyright (c) Steve Scherf et al.
# Submitted via: EasyCDDAExtractor 10.0.3.1
#
DISCID=2d111e15
DTITLE=Mariah Carey - Memoirs of an Imperfect Angel
DYEAR=2009
DGENRE=Pop
TTITLE0=Betcha Gon' Know
TTITLE1=Obsessed
TTITLE2=H.A.T.E.U.
TTITLE3=Candy Bling
TTITLE4=Ribbon
TTITLE5=Inseparable
TTITLE6=Standing O
TTITLE7=It's a Wrap
TTITLE8=Up Out My Face
TTITLE9=Up Out My Face (The Reprise)
TTITLE10=More Than Just Friends
TTITLE11=The Impossible
TTITLE12=The Impossible (The Reprise)
TTITLE13=Angel (The Prelude)
TTITLE14=Angels Cry
TTITLE15=Languishing (The Interlude)
TTITLE16=I Want to Know What Love Is
TTITLE17=Obsessed (Cahill Radio Mix)
TTITLE18=Obsessed (Seamus Haji and Paul Emanuel Radio Edit)
TTITLE19=Obsessed (Jump Smokers Radio Edit)
TTITLE20=Obsessed (Friscia and Lamboy Radio Mix)
EXTD=
EXTT0=
EXTT1=
EXTT2=
EXTT3=
EXTT4=
EXTT5=
EXTT6=
EXTT7=
EXTT8=
EXTT9=
EXTT10=
EXTT11=
EXTT12=
EXTT13=
EXTT14=
EXTT15=
EXTT16=
EXTT17=
EXTT18=
EXTT19=
EXTT20=
PLAYORDER=
